#!OML:ASF E:\motion texture\Top Level 1\Subject 1\Session 1\male.ASF
:FULLY-SPECIFIED
:DEGREES
781
root -34.8829 17.8493 2.63356 13.3431 -82.2268 -6.1361
lowerback -3.33831 0.498964 0.838725
upperback -3.85936 0.596786 1.34584
thorax -2.09592 0.265376 0.920997
lowerneck -5.03722 -1.92981 -7.59843
upperneck -15.5686 -1.97725 8.60452
head -3.6215 -1.1157 3.96005
rclavicle -3.41785e-014 -1.55052e-014
rhumerus 44.1203 29.0116 -69.4999
rradius 87.3062
rwrist 10.9767
rhand -40.1479 -42.942
rfingers 7.12502
rthumb -13.1103 -72.5099
lclavicle -3.41785e-014 -1.55052e-014
lhumerus 31.2728 -15.2642 80.2482
lradius 93.3749
lwrist 21.6061
lhand -18.2429 44.2021
lfingers 7.12502
lthumb 8.03588 74.0293
rfemur -29.5638 -2.76663 20.1151
rtibia 15.1022
rfoot -0.967259 -21.2584
rtoes 16.2276
lfemur -1.26118 -4.77782 -18.5033
ltibia 25.2131
lfoot -12.0169 -7.97955
ltoes -8.51973
782
root -35.0318 17.8524 2.61076 14.5639 -82.1284 -7.34155
lowerback -3.32326 0.538591 1.04966
upperback -3.87038 0.646263 1.40935
thorax -2.11476 0.285245 0.868652
lowerneck -5.31968 -1.92998 -7.49501
upperneck -15.0658 -1.97514 8.52407
head -3.42723 -1.10415 3.90326
rclavicle 1.51573e-014 5.96354e-015
rhumerus 43.7204 29.7722 -69.7294
rradius 87.2483
rwrist 11.4248
rhand -40.3969 -43.0517
rfingers 7.12502
rthumb -13.3504 -72.604
lclavicle 1.51573e-014 5.96354e-015
lhumerus 30.5184 -15.517 80.5494
lradius 93.8284
lwrist 21.922
lhand -18.3191 44.57
lfingers 7.12502
lthumb 7.9624 74.4
rfemur -29.3086 -2.79452 20.5288
rtibia 15.2855
rfoot -0.823532 -21.1618
rtoes 16.9108
lfemur -1.56572 -4.75795 -18.1081
ltibia 26.2975
lfoot -11.4162 -8.19348
ltoes -9.18736
783
root -35.1817 17.8565 2.58797 15.813 -82.0323 -8.58818
lowerback -3.30824 0.577976 1.26876
upperback -3.87906 0.695329 1.4766
thorax -2.13095 0.304685 0.815588
lowerneck -5.60905 -1.93093 -7.38945
upperneck -14.5445 -1.97468 8.44407
head -3.22668 -1.09313 3.84652
rclavicle 9.59136e-015 -3.97569e-016
rhumerus 43.2477 30.5567 -69.9841
rradius 87.1751
rwrist 11.8406
rhand -40.618 -43.1366
rfingers 7.12502
rthumb -13.5634 -72.6748
lclavicle 9.59136e-015 -3.97569e-016
lhumerus 29.6888 -15.7919 80.8459
lradius 94.2668
lwrist 22.2192
lhand -18.3863 44.9114
lfingers 7.12502
lthumb 7.8975 74.7439
rfemur -29.0268 -2.84106 20.9599
rtibia 15.4944
rfoot -0.694313 -21.0283
rtoes 17.5841
lfemur -1.89876 -4.73741 -17.7037
ltibia 27.4241
lfoot -10.7634 -8.39075
ltoes -9.81695
784
root -35.3321 17.8615 2.56499 17.1345 -81.9413 -9.91702
lowerback -3.29043 0.619401 1.49831
upperback -3.88693 0.747048 1.54894
thorax -2.14764 0.325157 0.761929
lowerneck -5.90705 -1.93362 -7.28133
upperneck -14.005 -1.97718 8.36447
head -3.01963 -1.08328 3.78978
rclavicle -4.14218e-014 7.95139e-016
rhumerus 42.6958 31.3617 -70.2701
rradius 87.0851
rwrist 12.2231
rhand -40.8063 -43.2031
rfingers 7.12502
rthumb -13.7449 -72.7291
lclavicle -4.14218e-014 7.95139e-016
lhumerus 28.7857 -16.0921 81.1374
lradius 94.6874
lwrist 22.4965
lhand -18.4432 45.2328
lfingers 7.12502
lthumb 7.84262 75.0673
rfemur -28.723 -2.88657 21.4092
rtibia 15.7225
rfoot -0.582579 -20.8725
rtoes 18.2447
lfemur -2.26819 -4.7107 -17.2812
ltibia 28.5944
lfoot -10.0638 -8.56797
ltoes -10.4018
785
root -35.4834 17.8675 2.54208 18.4832 -81.853 -11.2846
lowerback -3.27224 0.660756 1.73437
upperback -3.89131 0.798617 1.62523
thorax -2.16073 0.345396 0.708728
lowerneck -6.21719 -1.93783 -7.17433
upperneck -13.448 -1.98201 8.28745
head -2.80567 -1.07419 3.73431
rclavicle -2.1593e-014 -1.82882e-014
rhumerus 42.0645 32.1853 -70.5894
rradius 86.9757
rwrist 12.5678
rhand -40.969 -43.2417
rfingers 7.12502
rthumb -13.9017 -72.757
lclavicle -2.1593e-014 -1.82882e-014
lhumerus 27.812 -16.415 81.4232
lradius 95.0858
lwrist 22.7563
lhand -18.4904 45.5312
lfingers 7.12502
lthumb 7.79707 75.3674
rfemur -28.3898 -2.94094 21.8699
rtibia 15.9578
rfoot -0.486902 -20.6891
rtoes 18.8911
lfemur -2.66758 -4.67914 -16.8507
ltibia 29.8009
lfoot -9.32421 -8.72387
ltoes -10.9443
